<svg xmlns="http://www.w3.org/2000/svg" width="44" height="43.8" viewBox="0 0 44 43.8"><g id="ic_wb_sunny_48px" transform="translate(-2 -1.1)"><path id="Path_1" fill="#ff8906" d="M13.51,9.69,9.93,6.1,7.1,8.93l3.59,3.59,2.82-2.83ZM8,21H2v4H8ZM26,1.1H22V7h4ZM40.9,8.93,38.07,6.1,34.48,9.69l2.83,2.83L40.9,8.93ZM34.49,36.31l3.59,3.59,2.83-2.83-3.59-3.59-2.83,2.83ZM40,21v4h6V21ZM24,11A12,12,0,1,0,36,23,12,12,0,0,0,24,11ZM22,44.9h4V39H22ZM7.1,37.07,9.93,39.9l3.59-3.59-2.83-2.83L7.1,37.07Z" data-name="Path 1"/></g></svg>